PathFileType	3	(X/Y/Z)	feet_movements_1__view1_aligned.trc
DataRate	CameraRate	NumFrames	NumMarkers	Units	OrigDataRate	OrigDataStartFrame	OrigNumFrames
100.0	100.0	6	19	mm	100.0	1091	1840
Frame#	Time	pelvis			neck			head			hip_left			hip_right			knee_left			knee_right			ankle_left			ankle_right			heel_left			heel_right			toe_left			toe_right			shoulder_left			shoulder_right			elbow_left			elbow_right			wrist_left			wrist_right			
		X1	Y1	Z1	X2	Y2	Z2	X3	Y3	Z3	X4	Y4	Z4	X5	Y5	Z5	X6	Y6	Z6	X7	Y7	Z7	X8	Y8	Z8	X9	Y9	Z9	X10	Y10	Z10	X11	Y11	Z11	X12	Y12	Z12	X13	Y13	Z13	X14	Y14	Z14	X15	Y15	Z15	X16	Y16	Z16	X17	Y17	Z17	X18	Y18	Z18	X19	Y19	Z19	
1091	10.90000	162.925640	930.550913	348.234934	193.106456	1436.867315	542.169118	216.595134	1575.896265	446.002993	96.254698	947.307681	311.608284	229.596202	913.794161	384.861904	173.511701	692.593911	-44.122939	289.031044	509.040708	216.439833	116.960437	339.577579	-246.839262	141.510749	175.696737	407.671258	98.603672	287.309176	-236.673719	116.050574	142.122882	453.542927	180.931387	321.655479	-426.323328	176.735064	73.296853	246.870401	11.199634	1391.758439	499.825936	355.862342	1373.655375	628.358103	-138.087160	1170.507816	374.086931	452.774727	1120.593139	521.255812	-201.074456	1048.303731	148.654298	572.578659	1100.092461	292.477166
1092	10.91000	162.151789	930.888909	349.685406	192.366512	1437.428680	542.861778	215.749889	1576.407132	446.607294	95.316411	947.666972	313.106187	228.986787	914.110861	386.264946	172.544818	694.784590	-43.518661	287.215094	509.037699	218.796869	117.534173	341.681999	-246.066699	140.341606	175.145566	409.134620	99.759543	289.042257	-236.242844	114.973873	141.400011	454.921340	180.605885	327.305530	-426.048510	175.554573	73.318500	247.937337	10.416582	1392.080810	500.602013	355.315373	1374.644260	628.942231	-138.792616	1170.906296	374.475458	452.395466	1121.449328	522.177799	-202.124370	1048.370152	149.228199	571.649053	1100.246621	293.098930
1093	10.92000	161.377937	931.226904	351.135879	191.626568	1437.990046	543.554437	214.904645	1576.918000	447.211596	94.378124	948.026262	314.604090	228.377371	914.427561	387.667988	171.577935	696.975268	-42.914384	285.399144	509.034689	221.153905	118.107909	343.786418	-245.294137	139.172463	174.594396	410.597981	100.915415	290.775338	-235.811970	113.897173	140.677141	456.299752	180.280383	332.955581	-425.773692	174.374083	73.340148	249.004272	9.633530	1392.403181	501.378090	354.768404	1375.633145	629.526359	-139.498073	1171.304775	374.863985	452.016204	1122.305518	523.099785	-203.174285	1048.436573	149.802100	570.719446	1100.400780	293.720694
1094	10.93000	160.604086	931.564900	352.586351	190.886623	1438.551411	544.247096	214.059400	1577.428867	447.815898	93.439837	948.385553	316.101993	227.767955	914.744261	389.071030	170.611052	699.165947	-42.310106	283.583194	509.031680	223.510941	118.681645	345.890837	-244.521574	138.003320	174.043226	412.061343	102.071287	292.508419	-235.381095	112.820473	139.954270	457.678165	179.954882	338.605633	-425.498875	173.193592	73.361796	250.071208	8.850478	1392.725552	502.154167	354.221435	1376.622030	630.110486	-140.203529	1171.703255	375.252511	451.636942	1123.161707	524.021771	-204.224199	1048.502994	150.376000	569.789839	1100.554940	294.342458
1095	10.94000	159.830235	931.902895	354.036824	190.146679	1439.112777	544.939756	213.214156	1577.939735	448.420200	92.501550	948.744844	317.599896	227.158540	915.060961	390.474072	169.644169	701.356626	-41.705828	281.767244	509.028670	225.867976	119.255380	347.995256	-243.749011	136.834178	173.492055	413.524704	103.227159	294.241500	-234.950220	111.743772	139.231399	459.056578	179.629380	344.255684	-425.224057	172.013101	73.383444	251.138143	8.067426	1393.047924	502.930244	353.674466	1377.610916	630.694614	-140.908986	1172.101735	375.641038	451.257681	1124.017896	524.943757	-205.274114	1048.569415	150.949901	568.860232	1100.709100	294.964222
1096	10.95000	159.056383	932.240890	355.487297	189.406735	1439.674142	545.632415	212.368911	1578.450602	449.024502	91.563262	949.104135	319.097800	226.549124	915.377661	391.877115	168.677286	703.547305	-41.101551	279.951294	509.025661	228.225012	119.829116	350.099675	-242.976449	135.665035	172.940885	414.988066	104.383030	295.974582	-234.519346	110.667072	138.508528	460.434991	179.303878	349.905735	-424.949240	170.832610	73.405092	252.205079	7.284374	1393.370295	503.706321	353.127497	1378.599801	631.278742	-141.614442	1172.500215	376.029565	450.878419	1124.874085	525.865744	-206.324028	1048.635836	151.523802	567.930626	1100.863260	295.585986
